<svg xmlns="http://www.w3.org/2000/svg" version="1.1" xmlns:xlink="http://www.w3.org/1999/xlink" xmlns:svgjs="http://svgjs.dev/svgjs" width="1440" height="560" preserveAspectRatio="none" viewBox="0 0 1440 560">
    <g mask="url(#SvgjsMask1000)" fill="none">
        <rect width="1440" height="560" x="0" y="0" fill="#ff69b4"></rect>
        <path d="M0,386.867C83.955,395.241,181.742,438.127,247.986,385.874C315.283,332.79,275.52,220.052,310.615,141.853C345.348,64.462,458.899,19.652,450.217,-64.731C441.617,-148.32,335.042,-180.187,271.791,-235.508C218.172,-282.405,175.613,-345.247,107.119,-364.815C38.826,-384.325,-32.134,-361.537,-100.37,-341.829C-168.883,-322.041,-233.029,-294.614,-288.99,-250.411C-354.763,-198.458,-428.779,-145.657,-451.029,-64.848C-474.082,18.875,-452.778,111.735,-409.423,186.977C-367.875,259.082,-292.89,302.873,-218.108,339.383C-149.863,372.702,-75.569,379.329,0,386.867" fill="#ff1493"></path>
    </g>
    <defs>
        <mask id="SvgjsMask1000">
            <rect width="1440" height="560" fill="#ffffff"></rect>
        </mask>
    </defs>
</svg>
