<svg id="visual" viewBox="0 0 900 600" width="900" height="600" xmlns="http://www.w3.org/2000/svg" xmlns:xlink="http://www.w3.org/1999/xlink" version="1.1"><rect x="0" y="0" width="900" height="600" fill="#001220"></rect><path d="M0 427L21.5 429.2C43 431.3 86 435.7 128.8 427.3C171.7 419 214.3 398 257.2 388.8C300 379.7 343 382.3 385.8 389.7C428.7 397 471.3 409 514.2 415.7C557 422.3 600 423.7 642.8 426C685.7 428.3 728.3 431.7 771.2 429.3C814 427 857 419 878.5 415L900 411L900 601L878.5 601C857 601 814 601 771.2 601C728.3 601 685.7 601 642.8 601C600 601 557 601 514.2 601C471.3 601 428.7 601 385.8 601C343 601 300 601 257.2 601C214.3 601 171.7 601 128.8 601C86 601 43 601 21.5 601L0 601Z" fill="#fa7268"></path><path d="M0 407L21.5 411C43 415 86 423 128.8 428.7C171.7 434.3 214.3 437.7 257.2 438.3C300 439 343 437 385.8 430.7C428.7 424.3 471.3 413.7 514.2 409C557 404.3 600 405.7 642.8 412.8C685.7 420 728.3 433 771.2 440.2C814 447.3 857 448.7 878.5 449.3L900 450L900 601L878.5 601C857 601 814 601 771.2 601C728.3 601 685.7 601 642.8 601C600 601 557 601 514.2 601C471.3 601 428.7 601 385.8 601C343 601 300 601 257.2 601C214.3 601 171.7 601 128.8 601C86 601 43 601 21.5 601L0 601Z" fill="#ef5f67"></path><path d="M0 455L21.5 452C43 449 86 443 128.8 448.3C171.7 453.7 214.3 470.3 257.2 471.2C300 472 343 457 385.8 456C428.7 455 471.3 468 514.2 468.3C557 468.7 600 456.3 642.8 456C685.7 455.7 728.3 467.3 771.2 473.7C814 480 857 481 878.5 481.5L900 482L900 601L878.5 601C857 601 814 601 771.2 601C728.3 601 685.7 601 642.8 601C600 601 557 601 514.2 601C471.3 601 428.7 601 385.8 601C343 601 300 601 257.2 601C214.3 601 171.7 601 128.8 601C86 601 43 601 21.5 601L0 601Z" fill="#e34c67"></path><path d="M0 532L21.5 524C43 516 86 500 128.8 500C171.7 500 214.3 516 257.2 520.8C300 525.7 343 519.3 385.8 518C428.7 516.7 471.3 520.3 514.2 520.2C557 520 600 516 642.8 518.5C685.7 521 728.3 530 771.2 526.8C814 523.7 857 508.3 878.5 500.7L900 493L900 601L878.5 601C857 601 814 601 771.2 601C728.3 601 685.7 601 642.8 601C600 601 557 601 514.2 601C471.3 601 428.7 601 385.8 601C343 601 300 601 257.2 601C214.3 601 171.7 601 128.8 601C86 601 43 601 21.5 601L0 601Z" fill="#d53867"></path><path d="M0 553L21.5 555.8C43 558.7 86 564.3 128.8 560.3C171.7 556.3 214.3 542.7 257.2 540.3C300 538 343 547 385.8 550.8C428.7 554.7 471.3 553.3 514.2 555.5C557 557.7 600 563.3 642.8 566.5C685.7 569.7 728.3 570.3 771.2 568.5C814 566.7 857 562.3 878.5 560.2L900 558L900 601L878.5 601C857 601 814 601 771.2 601C728.3 601 685.7 601 642.8 601C600 601 557 601 514.2 601C471.3 601 428.7 601 385.8 601C343 601 300 601 257.2 601C214.3 601 171.7 601 128.8 601C86 601 43 601 21.5 601L0 601Z" fill="#c62368"></path></svg>