<?xml version="1.0" encoding="UTF-8"?>
<svg id="Layer_1" xmlns="http://www.w3.org/2000/svg" version="1.1" viewBox="0 0 1920 1080">
  <!-- Generator: Adobe Illustrator 29.8.1, SVG Export Plug-In . SVG Version: 2.1.1 Build 2)  -->
  <defs>
    <style>
      .st0 {
        fill: #fff;
      }
    </style>
  </defs>
  <g>
    <g>
      <path class="st0" d="M457.14,386.09h-62.58c-37.58,0-58.28-26.59-58.28-74.88v-136.13h34.98v135.84c0,12.76,2.82,27.41,24.8,27.41h61.07v47.76Z"/>
      <path class="st0" d="M554.76,386.09h-19.75c-45.99,0-70.31-36.33-70.31-105.07s24.31-105.95,70.31-105.95h19.75c45.99,0,70.31,36.63,70.31,105.95s-24.31,105.07-70.31,105.07ZM535.01,222.83c-25.42,0-35.32,16.31-35.32,58.19s9.9,57.31,35.32,57.31h19.75c25.26,0,35.11-16.15,35.11-57.6s-9.84-57.9-35.11-57.9h-19.75Z"/>
    </g>
    <path class="st0" d="M966.4,279.41l-40.42-106.7-40.42,106.7-40.42,106.68h39.45l6.46-17h69.91l6.46,17h39.44l-40.44-106.68ZM925.9,336.7c-11.59,0-20.98-12.82-20.98-28.64s9.39-28.66,20.98-28.66,20.99,12.82,20.99,28.66-9.41,28.64-20.99,28.64Z"/>
    <path class="st0" d="M1067.88,308.05c0,107.04-63.56,193.81-141.97,193.81s-141.97-86.77-141.97-193.81,63.56-193.81,141.97-193.81,141.97,86.77,141.97,193.81ZM925.91,156.27c-61.4,0-111.18,67.96-111.18,151.78s49.78,151.78,111.18,151.78,111.18-67.96,111.18-151.78-49.78-151.78-111.18-151.78Z"/>
    <path class="st0" d="M855.8,445.79l29.77,78.52,28.44,75.06c5.03,13.28,18.95,13.28,23.98,0l28.44-75.06,28.9-76.26c-86.15,66.6-139.52-2.27-139.52-2.27Z"/>
  </g>
  <path class="st0" d="M770.41,386.09h-60.86c-45.99,0-70.31-36.43-70.31-105.36s24.31-105.65,70.31-105.65h60.86v47.76h-60.86c-25.42,0-35.32,16.23-35.32,57.9s9.9,57.6,35.32,57.6h60.86v47.76Z"/>
  <path class="st0" d="M1289.24,386.09h-19.75c-45.99,0-70.31-36.33-70.31-105.07s24.31-105.95,70.31-105.95h19.75c45.99,0,70.31,36.63,70.31,105.95s-24.31,105.07-70.31,105.07ZM1269.49,222.83c-25.42,0-35.32,16.31-35.32,58.19s9.9,57.31,35.32,57.31h19.75c25.26,0,35.11-16.15,35.11-57.6s-9.84-57.9-35.11-57.9h-19.75Z"/>
  <polygon class="st0" points="1191.78 175.09 1191.78 222.84 1148.96 222.84 1148.96 386.09 1113.76 386.09 1113.76 222.84 1070.92 222.84 1070.92 175.09 1191.78 175.09"/>
  <path class="st0" d="M1511.69,386.09h-39.27l-33.06-76.5h-30.51v76.5h-35v-84.84c0-25.89,8.77-37.95,27.58-37.95h53.13c13.86,0,15.36-14.66,15.36-20.96,0-5.86-1.5-19.5-15.36-19.5h-80.93v-47.76h80.07c37.91,0,51.41,33.99,51.41,65.79,0,23.41-7.59,51.22-28.42,63.09l34.98,82.13Z"/>
</svg>